<?xml version="1.0" ?><!DOCTYPE svg  PUBLIC '-//W3C//DTD SVG 1.1//EN'  'http://www.w3.org/Graphics/SVG/1.1/DTD/svg11.dtd'><svg enable-background="new 0 0 64 64" height="64px" id="Icons" version="1.1" viewBox="0 0 64 64" width="64px" xml:space="preserve" xmlns="http://www.w3.org/2000/svg" xmlns:xlink="http://www.w3.org/1999/xlink"><g id="WEB_analytics"><g><path d="M33,5.025v17.025c4.723,0.469,8.479,4.227,8.949,8.949h17.026C58.461,16.885,47.116,5.54,33,5.025z     M34,21.184V6.083C46.71,7.057,56.944,17.291,57.918,30H42.816C41.994,25.535,38.464,22.006,34,21.184z" fill="#37474F"/><path d="M57.959,34c-0.43,5.599-2.683,10.904-6.39,15.135L40.896,38.471c0.978-1.336,1.624-2.855,1.921-4.471H58     M58.975,33H41.949c-0.21,2.113-1.085,4.027-2.403,5.547l12.036,12.035C55.96,45.966,58.727,39.805,58.975,33L58.975,33z" fill="#37474F"/><path d="M30,6v15.183c-5.19,0.944-9,5.445-9,10.817c0,6.065,4.935,11,11,11c2.106,0,4.123-0.587,5.881-1.705    l10.712,10.713C43.933,55.879,38.081,58,32,58C17.663,58,6,46.336,6,32C6,18.294,16.459,7.061,30,6.041 M31,5.025    C16.552,5.553,5,17.424,5,32c0,14.911,12.088,27,27,27c6.948,0,13.277-2.629,18.06-6.939L37.998,39.998    C36.327,41.254,34.25,42,32,42c-5.521,0-10-4.478-10-10c0-5.185,3.948-9.447,9-9.949V5.025L31,5.025z" fill="#37474F"/></g></g></svg>